<svg width="278" height="548" viewBox="0 0 278 548" fill="none" xmlns="http://www.w3.org/2000/svg">
<g filter="url(#filter0_ddd_1733_50179)">
<g clip-path="url(#clip0_1733_50179)">
<rect x="19" y="18" width="240" height="30" fill="#EDEDED" stroke="black" stroke-width="0.5"/>
<rect x="19" y="48" width="24" height="24" fill="#F9F9F9" stroke="black" stroke-width="0.5"/>
<rect x="19" y="72" width="24" height="24" fill="#F9F9F9" stroke="black" stroke-width="0.5"/>
<rect x="19" y="96" width="24" height="24" fill="#F9F9F9" stroke="black" stroke-width="0.5"/>
<rect x="19" y="120" width="24" height="24" fill="#F9F9F9" stroke="black" stroke-width="0.5"/>
<rect x="19" y="144" width="24" height="24" fill="#F9F9F9" stroke="black" stroke-width="0.5"/>
<rect x="19" y="168" width="24" height="24" fill="#EDEDED" stroke="black" stroke-width="0.5"/>
<rect x="19" y="192" width="24" height="24" fill="#EDEDED" stroke="black" stroke-width="0.5"/>
<rect x="19" y="216" width="24" height="24" fill="#EDEDED" stroke="black" stroke-width="0.5"/>
<rect x="19" y="240" width="24" height="24" fill="#EDEDED" stroke="black" stroke-width="0.5"/>
<rect x="19" y="264" width="24" height="24" fill="#EDEDED" stroke="black" stroke-width="0.5"/>
<rect x="19" y="288" width="24" height="24" fill="#F9F9F9" stroke="black" stroke-width="0.5"/>
<rect x="19" y="312" width="24" height="24" fill="#F9F9F9" stroke="black" stroke-width="0.5"/>
<rect x="19" y="336" width="24" height="24" fill="#F9F9F9" stroke="black" stroke-width="0.5"/>
<rect x="19" y="360" width="24" height="24" fill="#F9F9F9" stroke="black" stroke-width="0.5"/>
<rect x="19" y="384" width="24" height="24" fill="#F9F9F9" stroke="black" stroke-width="0.5"/>
<rect x="19" y="408" width="24" height="24" fill="#EDEDED" stroke="black" stroke-width="0.5"/>
<rect x="19" y="432" width="24" height="24" fill="#EDEDED" stroke="black" stroke-width="0.5"/>
<rect x="19" y="456" width="24" height="24" fill="#EDEDED" stroke="black" stroke-width="0.5"/>
<rect x="19" y="480" width="24" height="24" fill="#EDEDED" stroke="black" stroke-width="0.5"/>
<rect x="19" y="504" width="24" height="24" fill="#EDEDED" stroke="black" stroke-width="0.5"/>
<rect x="43" y="48" width="24" height="24" fill="#F9F9F9" stroke="black" stroke-width="0.5"/>
<rect x="43" y="72" width="24" height="24" fill="#F9F9F9" stroke="black" stroke-width="0.5"/>
<rect x="43" y="96" width="24" height="24" fill="#F9F9F9" stroke="black" stroke-width="0.5"/>
<rect x="43" y="120" width="24" height="24" fill="#F9F9F9" stroke="black" stroke-width="0.5"/>
<rect x="43" y="144" width="24" height="24" fill="#F9F9F9" stroke="black" stroke-width="0.5"/>
<rect x="43" y="168" width="24" height="24" fill="#EDEDED" stroke="black" stroke-width="0.5"/>
<rect x="43" y="192" width="24" height="24" fill="#EDEDED" stroke="black" stroke-width="0.5"/>
<rect x="43" y="216" width="24" height="24" fill="#EDEDED" stroke="black" stroke-width="0.5"/>
<rect x="43" y="240" width="24" height="24" fill="#EDEDED" stroke="black" stroke-width="0.5"/>
<rect x="43" y="264" width="24" height="24" fill="#EDEDED" stroke="black" stroke-width="0.5"/>
<rect x="43" y="288" width="24" height="24" fill="#F9F9F9" stroke="black" stroke-width="0.5"/>
<rect x="43" y="312" width="24" height="24" fill="#F9F9F9" stroke="black" stroke-width="0.5"/>
<rect x="43" y="336" width="24" height="24" fill="#F9F9F9" stroke="black" stroke-width="0.5"/>
<rect x="43" y="360" width="24" height="24" fill="#F9F9F9" stroke="black" stroke-width="0.5"/>
<rect x="43" y="384" width="24" height="24" fill="#F9F9F9" stroke="black" stroke-width="0.5"/>
<rect x="43" y="408" width="24" height="24" fill="#EDEDED" stroke="black" stroke-width="0.5"/>
<rect x="43" y="432" width="24" height="24" fill="#EDEDED" stroke="black" stroke-width="0.5"/>
<rect x="43" y="456" width="24" height="24" fill="#EDEDED" stroke="black" stroke-width="0.5"/>
<rect x="43" y="480" width="24" height="24" fill="#EDEDED" stroke="black" stroke-width="0.5"/>
<rect x="43" y="504" width="24" height="24" fill="#EDEDED" stroke="black" stroke-width="0.5"/>
<rect x="67" y="48" width="24" height="24" fill="#F9F9F9" stroke="black" stroke-width="0.5"/>
<rect x="67" y="72" width="24" height="24" fill="#F9F9F9" stroke="black" stroke-width="0.5"/>
<rect x="67" y="96" width="24" height="24" fill="#F9F9F9" stroke="black" stroke-width="0.5"/>
<rect x="67" y="120" width="24" height="24" fill="#F9F9F9" stroke="black" stroke-width="0.5"/>
<rect x="67" y="144" width="24" height="24" fill="#F9F9F9" stroke="black" stroke-width="0.5"/>
<rect x="67" y="168" width="24" height="24" fill="#EDEDED" stroke="black" stroke-width="0.5"/>
<rect x="67" y="192" width="24" height="24" fill="#EDEDED" stroke="black" stroke-width="0.5"/>
<rect x="67" y="216" width="24" height="24" fill="#EDEDED" stroke="black" stroke-width="0.5"/>
<rect x="67" y="240" width="24" height="24" fill="#EDEDED" stroke="black" stroke-width="0.5"/>
<rect x="67" y="264" width="24" height="24" fill="#EDEDED" stroke="black" stroke-width="0.5"/>
<rect x="67" y="288" width="24" height="24" fill="#F9F9F9" stroke="black" stroke-width="0.5"/>
<rect x="67" y="312" width="24" height="24" fill="#F9F9F9" stroke="black" stroke-width="0.5"/>
<rect x="67" y="336" width="24" height="24" fill="#F9F9F9" stroke="black" stroke-width="0.5"/>
<rect x="67" y="360" width="24" height="24" fill="#F9F9F9" stroke="black" stroke-width="0.5"/>
<rect x="67" y="384" width="24" height="24" fill="#F9F9F9" stroke="black" stroke-width="0.5"/>
<rect x="67" y="408" width="24" height="24" fill="#EDEDED" stroke="black" stroke-width="0.5"/>
<rect x="67" y="432" width="24" height="24" fill="#EDEDED" stroke="black" stroke-width="0.5"/>
<rect x="67" y="456" width="24" height="24" fill="#EDEDED" stroke="black" stroke-width="0.5"/>
<rect x="67" y="480" width="24" height="24" fill="#EDEDED" stroke="black" stroke-width="0.5"/>
<rect x="67" y="504" width="24" height="24" fill="#EDEDED" stroke="black" stroke-width="0.5"/>
<rect x="91" y="48" width="24" height="24" fill="#F9F9F9" stroke="black" stroke-width="0.5"/>
<rect x="91" y="72" width="24" height="24" fill="#F9F9F9" stroke="black" stroke-width="0.5"/>
<rect x="91" y="96" width="24" height="24" fill="#F9F9F9" stroke="black" stroke-width="0.5"/>
<rect x="91" y="120" width="24" height="24" fill="#F9F9F9" stroke="black" stroke-width="0.5"/>
<rect x="91" y="144" width="24" height="24" fill="#F9F9F9" stroke="black" stroke-width="0.5"/>
<rect x="91" y="168" width="24" height="24" fill="#EDEDED" stroke="black" stroke-width="0.5"/>
<rect x="91" y="192" width="24" height="24" fill="#EDEDED" stroke="black" stroke-width="0.5"/>
<rect x="91" y="216" width="24" height="24" fill="#EDEDED" stroke="black" stroke-width="0.5"/>
<rect x="91" y="240" width="24" height="24" fill="#EDEDED" stroke="black" stroke-width="0.5"/>
<rect x="91" y="264" width="24" height="24" fill="#EDEDED" stroke="black" stroke-width="0.5"/>
<rect x="91" y="288" width="24" height="24" fill="#F9F9F9" stroke="black" stroke-width="0.5"/>
<rect x="91" y="312" width="24" height="24" fill="#F9F9F9" stroke="black" stroke-width="0.5"/>
<rect x="91" y="336" width="24" height="24" fill="#F9F9F9" stroke="black" stroke-width="0.5"/>
<rect x="91" y="360" width="24" height="24" fill="#F9F9F9" stroke="black" stroke-width="0.5"/>
<rect x="91" y="384" width="24" height="24" fill="#F9F9F9" stroke="black" stroke-width="0.5"/>
<rect x="91" y="408" width="24" height="24" fill="#EDEDED" stroke="black" stroke-width="0.5"/>
<rect x="91" y="432" width="24" height="24" fill="#EDEDED" stroke="black" stroke-width="0.5"/>
<rect x="91" y="456" width="24" height="24" fill="#EDEDED" stroke="black" stroke-width="0.5"/>
<rect x="91" y="480" width="24" height="24" fill="#EDEDED" stroke="black" stroke-width="0.5"/>
<rect x="91" y="504" width="24" height="24" fill="#EDEDED" stroke="black" stroke-width="0.5"/>
<rect x="115" y="48" width="24" height="24" fill="#F9F9F9" stroke="black" stroke-width="0.5"/>
<rect x="115" y="72" width="24" height="24" fill="#F9F9F9" stroke="black" stroke-width="0.5"/>
<rect x="115" y="96" width="24" height="24" fill="#F9F9F9" stroke="black" stroke-width="0.5"/>
<rect x="115" y="120" width="24" height="24" fill="#F9F9F9" stroke="black" stroke-width="0.5"/>
<rect x="115" y="144" width="24" height="24" fill="#F9F9F9" stroke="black" stroke-width="0.5"/>
<rect x="115" y="168" width="24" height="24" fill="#EDEDED" stroke="black" stroke-width="0.5"/>
<rect x="115" y="192" width="24" height="24" fill="#EDEDED" stroke="black" stroke-width="0.5"/>
<rect x="115" y="216" width="24" height="24" fill="#EDEDED" stroke="black" stroke-width="0.5"/>
<rect x="115" y="240" width="24" height="24" fill="#EDEDED" stroke="black" stroke-width="0.5"/>
<rect x="115" y="264" width="24" height="24" fill="#EDEDED" stroke="black" stroke-width="0.5"/>
<rect x="115" y="288" width="24" height="24" fill="#F9F9F9" stroke="black" stroke-width="0.5"/>
<rect x="115" y="312" width="24" height="24" fill="#F9F9F9" stroke="black" stroke-width="0.5"/>
<rect x="115" y="336" width="24" height="24" fill="#F9F9F9" stroke="black" stroke-width="0.5"/>
<rect x="115" y="360" width="24" height="24" fill="#F9F9F9" stroke="black" stroke-width="0.5"/>
<rect x="115" y="384" width="24" height="24" fill="#F9F9F9" stroke="black" stroke-width="0.5"/>
<rect x="115" y="408" width="24" height="24" fill="#EDEDED" stroke="black" stroke-width="0.5"/>
<rect x="115" y="432" width="24" height="24" fill="#EDEDED" stroke="black" stroke-width="0.5"/>
<rect x="115" y="456" width="24" height="24" fill="#EDEDED" stroke="black" stroke-width="0.5"/>
<rect x="115" y="480" width="24" height="24" fill="#EDEDED" stroke="black" stroke-width="0.5"/>
<rect x="115" y="504" width="24" height="24" fill="#EDEDED" stroke="black" stroke-width="0.5"/>
<rect x="139" y="48" width="24" height="24" fill="#F9F9F9" stroke="black" stroke-width="0.5"/>
<rect x="139" y="72" width="24" height="24" fill="#F9F9F9" stroke="black" stroke-width="0.5"/>
<rect x="139" y="96" width="24" height="24" fill="#F9F9F9" stroke="black" stroke-width="0.5"/>
<rect x="139" y="120" width="24" height="24" fill="#F9F9F9" stroke="black" stroke-width="0.5"/>
<rect x="139" y="144" width="24" height="24" fill="#F9F9F9" stroke="black" stroke-width="0.5"/>
<rect x="139" y="168" width="24" height="24" fill="#EDEDED" stroke="black" stroke-width="0.5"/>
<rect x="139" y="192" width="24" height="24" fill="#EDEDED" stroke="black" stroke-width="0.5"/>
<rect x="139" y="216" width="24" height="24" fill="#EDEDED" stroke="black" stroke-width="0.5"/>
<rect x="139" y="240" width="24" height="24" fill="#EDEDED" stroke="black" stroke-width="0.5"/>
<rect x="139" y="264" width="24" height="24" fill="#EDEDED" stroke="black" stroke-width="0.5"/>
<rect x="139" y="288" width="24" height="24" fill="#F9F9F9" stroke="black" stroke-width="0.5"/>
<rect x="139" y="312" width="24" height="24" fill="#F9F9F9" stroke="black" stroke-width="0.5"/>
<rect x="139" y="336" width="24" height="24" fill="#F9F9F9" stroke="black" stroke-width="0.5"/>
<rect x="139" y="360" width="24" height="24" fill="#F9F9F9" stroke="black" stroke-width="0.5"/>
<rect x="139" y="384" width="24" height="24" fill="#F9F9F9" stroke="black" stroke-width="0.5"/>
<rect x="139" y="408" width="24" height="24" fill="#EDEDED" stroke="black" stroke-width="0.5"/>
<rect x="139" y="432" width="24" height="24" fill="#EDEDED" stroke="black" stroke-width="0.5"/>
<rect x="139" y="456" width="24" height="24" fill="#EDEDED" stroke="black" stroke-width="0.5"/>
<rect x="139" y="480" width="24" height="24" fill="#EDEDED" stroke="black" stroke-width="0.5"/>
<rect x="139" y="504" width="24" height="24" fill="#EDEDED" stroke="black" stroke-width="0.5"/>
<rect x="163" y="48" width="24" height="24" fill="#F9F9F9" stroke="black" stroke-width="0.5"/>
<rect x="163" y="72" width="24" height="24" fill="#F9F9F9" stroke="black" stroke-width="0.5"/>
<rect x="163" y="96" width="24" height="24" fill="#F9F9F9" stroke="black" stroke-width="0.5"/>
<rect x="163" y="120" width="24" height="24" fill="#F9F9F9" stroke="black" stroke-width="0.5"/>
<rect x="163" y="144" width="24" height="24" fill="#F9F9F9" stroke="black" stroke-width="0.5"/>
<rect x="163" y="168" width="24" height="24" fill="#EDEDED" stroke="black" stroke-width="0.5"/>
<rect x="163" y="192" width="24" height="24" fill="#EDEDED" stroke="black" stroke-width="0.5"/>
<rect x="163" y="216" width="24" height="24" fill="#EDEDED" stroke="black" stroke-width="0.5"/>
<rect x="163" y="240" width="24" height="24" fill="#EDEDED" stroke="black" stroke-width="0.5"/>
<rect x="163" y="264" width="24" height="24" fill="#EDEDED" stroke="black" stroke-width="0.5"/>
<rect x="163" y="288" width="24" height="24" fill="#F9F9F9" stroke="black" stroke-width="0.5"/>
<rect x="163" y="312" width="24" height="24" fill="#F9F9F9" stroke="black" stroke-width="0.5"/>
<rect x="163" y="336" width="24" height="24" fill="#F9F9F9" stroke="black" stroke-width="0.5"/>
<rect x="163" y="360" width="24" height="24" fill="#F9F9F9" stroke="black" stroke-width="0.5"/>
<rect x="163" y="384" width="24" height="24" fill="#F9F9F9" stroke="black" stroke-width="0.5"/>
<rect x="163" y="408" width="24" height="24" fill="#EDEDED" stroke="black" stroke-width="0.5"/>
<rect x="163" y="432" width="24" height="24" fill="#EDEDED" stroke="black" stroke-width="0.5"/>
<rect x="163" y="456" width="24" height="24" fill="#EDEDED" stroke="black" stroke-width="0.5"/>
<rect x="163" y="480" width="24" height="24" fill="#EDEDED" stroke="black" stroke-width="0.5"/>
<rect x="163" y="504" width="24" height="24" fill="#EDEDED" stroke="black" stroke-width="0.5"/>
<rect x="187" y="48" width="24" height="24" fill="#F9F9F9" stroke="black" stroke-width="0.5"/>
<rect x="187" y="72" width="24" height="24" fill="#F9F9F9" stroke="black" stroke-width="0.5"/>
<rect x="187" y="96" width="24" height="24" fill="#F9F9F9" stroke="black" stroke-width="0.5"/>
<rect x="187" y="120" width="24" height="24" fill="#F9F9F9" stroke="black" stroke-width="0.5"/>
<rect x="187" y="144" width="24" height="24" fill="#F9F9F9" stroke="black" stroke-width="0.5"/>
<rect x="187" y="168" width="24" height="24" fill="#EDEDED" stroke="black" stroke-width="0.5"/>
<rect x="187" y="192" width="24" height="24" fill="#EDEDED" stroke="black" stroke-width="0.5"/>
<rect x="187" y="216" width="24" height="24" fill="#EDEDED" stroke="black" stroke-width="0.5"/>
<rect x="187" y="240" width="24" height="24" fill="#EDEDED" stroke="black" stroke-width="0.5"/>
<rect x="187" y="264" width="24" height="24" fill="#EDEDED" stroke="black" stroke-width="0.5"/>
<rect x="187" y="288" width="24" height="24" fill="#F9F9F9" stroke="black" stroke-width="0.5"/>
<rect x="187" y="312" width="24" height="24" fill="#F9F9F9" stroke="black" stroke-width="0.5"/>
<rect x="187" y="336" width="24" height="24" fill="#F9F9F9" stroke="black" stroke-width="0.5"/>
<rect x="187" y="360" width="24" height="24" fill="#F9F9F9" stroke="black" stroke-width="0.5"/>
<rect x="187" y="384" width="24" height="24" fill="#F9F9F9" stroke="black" stroke-width="0.5"/>
<rect x="187" y="408" width="24" height="24" fill="#EDEDED" stroke="black" stroke-width="0.5"/>
<rect x="187" y="432" width="24" height="24" fill="#EDEDED" stroke="black" stroke-width="0.5"/>
<rect x="187" y="456" width="24" height="24" fill="#EDEDED" stroke="black" stroke-width="0.5"/>
<rect x="187" y="480" width="24" height="24" fill="#EDEDED" stroke="black" stroke-width="0.5"/>
<rect x="187" y="504" width="24" height="24" fill="#EDEDED" stroke="black" stroke-width="0.5"/>
<rect x="211" y="48" width="24" height="24" fill="#F9F9F9" stroke="black" stroke-width="0.5"/>
<rect x="211" y="72" width="24" height="24" fill="#F9F9F9" stroke="black" stroke-width="0.5"/>
<rect x="211" y="96" width="24" height="24" fill="#F9F9F9" stroke="black" stroke-width="0.5"/>
<rect x="211" y="120" width="24" height="24" fill="#F9F9F9" stroke="black" stroke-width="0.5"/>
<rect x="211" y="144" width="24" height="24" fill="#F9F9F9" stroke="black" stroke-width="0.5"/>
<rect x="211" y="168" width="24" height="24" fill="#EDEDED" stroke="black" stroke-width="0.5"/>
<rect x="211" y="192" width="24" height="24" fill="#EDEDED" stroke="black" stroke-width="0.5"/>
<rect x="211" y="216" width="24" height="24" fill="#EDEDED" stroke="black" stroke-width="0.5"/>
<rect x="211" y="240" width="24" height="24" fill="#EDEDED" stroke="black" stroke-width="0.5"/>
<rect x="211" y="264" width="24" height="24" fill="#EDEDED" stroke="black" stroke-width="0.5"/>
<rect x="211" y="288" width="24" height="24" fill="#F9F9F9" stroke="black" stroke-width="0.5"/>
<rect x="211" y="312" width="24" height="24" fill="#F9F9F9" stroke="black" stroke-width="0.5"/>
<rect x="211" y="336" width="24" height="24" fill="#F9F9F9" stroke="black" stroke-width="0.5"/>
<rect x="211" y="360" width="24" height="24" fill="#F9F9F9" stroke="black" stroke-width="0.5"/>
<rect x="211" y="384" width="24" height="24" fill="#F9F9F9" stroke="black" stroke-width="0.5"/>
<rect x="211" y="408" width="24" height="24" fill="#EDEDED" stroke="black" stroke-width="0.5"/>
<rect x="211" y="432" width="24" height="24" fill="#EDEDED" stroke="black" stroke-width="0.5"/>
<rect x="211" y="456" width="24" height="24" fill="#EDEDED" stroke="black" stroke-width="0.5"/>
<rect x="211" y="480" width="24" height="24" fill="#EDEDED" stroke="black" stroke-width="0.5"/>
<rect x="211" y="504" width="24" height="24" fill="#EDEDED" stroke="black" stroke-width="0.5"/>
<rect x="235" y="48" width="24" height="24" fill="#F9F9F9" stroke="black" stroke-width="0.5"/>
<rect x="235" y="72" width="24" height="24" fill="#F9F9F9" stroke="black" stroke-width="0.5"/>
<rect x="235" y="96" width="24" height="24" fill="#F9F9F9" stroke="black" stroke-width="0.5"/>
<rect x="235" y="120" width="24" height="24" fill="#F9F9F9" stroke="black" stroke-width="0.5"/>
<rect x="235" y="144" width="24" height="24" fill="#F9F9F9" stroke="black" stroke-width="0.5"/>
<rect x="235" y="168" width="24" height="24" fill="#EDEDED" stroke="black" stroke-width="0.5"/>
<rect x="235" y="192" width="24" height="24" fill="#EDEDED" stroke="black" stroke-width="0.5"/>
<rect x="235" y="216" width="24" height="24" fill="#EDEDED" stroke="black" stroke-width="0.5"/>
<rect x="235" y="240" width="24" height="24" fill="#EDEDED" stroke="black" stroke-width="0.5"/>
<rect x="235" y="264" width="24" height="24" fill="#EDEDED" stroke="black" stroke-width="0.5"/>
<rect x="235" y="288" width="24" height="24" fill="#F9F9F9" stroke="black" stroke-width="0.5"/>
<rect x="235" y="312" width="24" height="24" fill="#F9F9F9" stroke="black" stroke-width="0.5"/>
<rect x="235" y="336" width="24" height="24" fill="#F9F9F9" stroke="black" stroke-width="0.5"/>
<rect x="235" y="360" width="24" height="24" fill="#F9F9F9" stroke="black" stroke-width="0.5"/>
<rect x="235" y="384" width="24" height="24" fill="#F9F9F9" stroke="black" stroke-width="0.5"/>
<rect x="235" y="408" width="24" height="24" fill="#EDEDED" stroke="black" stroke-width="0.5"/>
<rect x="235" y="432" width="24" height="24" fill="#EDEDED" stroke="black" stroke-width="0.5"/>
<rect x="235" y="456" width="24" height="24" fill="#EDEDED" stroke="black" stroke-width="0.5"/>
<rect x="235" y="480" width="24" height="24" fill="#EDEDED" stroke="black" stroke-width="0.5"/>
<rect x="235" y="504" width="24" height="24" fill="#EDEDED" stroke="black" stroke-width="0.5"/>
</g>
<rect x="19" y="18" width="240" height="510" rx="4" stroke="black" stroke-width="0.5" shape-rendering="crispEdges"/>
</g>
<defs>
<filter id="filter0_ddd_1733_50179" x="0.75" y="0.75" width="276.5" height="546.5" filterUnits="userSpaceOnUse" color-interpolation-filters="sRGB">
<feFlood flood-opacity="0" result="BackgroundImageFix"/>
<feColorMatrix in="SourceAlpha" type="matrix" values="0 0 0 0 0 0 0 0 0 0 0 0 0 0 0 0 0 0 127 0" result="hardAlpha"/>
<feOffset dy="1"/>
<feGaussianBlur stdDeviation="9"/>
<feComposite in2="hardAlpha" operator="out"/>
<feColorMatrix type="matrix" values="0 0 0 0 0 0 0 0 0 0 0 0 0 0 0 0 0 0 0.12 0"/>
<feBlend mode="normal" in2="BackgroundImageFix" result="effect1_dropShadow_1733_50179"/>
<feColorMatrix in="SourceAlpha" type="matrix" values="0 0 0 0 0 0 0 0 0 0 0 0 0 0 0 0 0 0 127 0" result="hardAlpha"/>
<feOffset dy="6"/>
<feGaussianBlur stdDeviation="5"/>
<feComposite in2="hardAlpha" operator="out"/>
<feColorMatrix type="matrix" values="0 0 0 0 0 0 0 0 0 0 0 0 0 0 0 0 0 0 0.14 0"/>
<feBlend mode="normal" in2="effect1_dropShadow_1733_50179" result="effect2_dropShadow_1733_50179"/>
<feColorMatrix in="SourceAlpha" type="matrix" values="0 0 0 0 0 0 0 0 0 0 0 0 0 0 0 0 0 0 127 0" result="hardAlpha"/>
<feOffset dy="3"/>
<feGaussianBlur stdDeviation="2.5"/>
<feComposite in2="hardAlpha" operator="out"/>
<feColorMatrix type="matrix" values="0 0 0 0 0 0 0 0 0 0 0 0 0 0 0 0 0 0 0.2 0"/>
<feBlend mode="normal" in2="effect2_dropShadow_1733_50179" result="effect3_dropShadow_1733_50179"/>
<feBlend mode="normal" in="SourceGraphic" in2="effect3_dropShadow_1733_50179" result="shape"/>
</filter>
<clipPath id="clip0_1733_50179">
<rect x="19" y="18" width="240" height="510" rx="4" fill="white"/>
</clipPath>
</defs>
</svg>
