<svg width="16" height="16" viewBox="0 0 16 16" fill="none" xmlns="http://www.w3.org/2000/svg">
<g clip-path="url(#clip0_1834_58329)">
<path d="M4.89279 6.72352L8.00047 3.61615L11.1091 6.72477L12.9173 4.91685L8.00047 0L3.08487 4.91529L4.89279 6.72321V6.72352ZM0 8.00047L1.80823 6.19193L3.61615 8.00047L1.80792 9.80776L0 8.00047ZM4.89279 9.27711L8.00047 12.3842L11.1091 9.27554L12.9183 11.0825L8.00047 16.0009L3.08487 11.085L3.08237 11.0822L4.89279 9.27679V9.27711ZM12.3842 8.00047L14.1921 6.19255L16.0009 8.00047L14.193 9.80839L12.3842 8.00047Z" fill="black"/>
<path d="M9.83383 8.00011L8.0006 6.16406L6.64427 7.51977L6.48801 7.67603L6.16705 7.99698L6.16455 7.99948L6.16705 8.00198L8.0006 9.83521L9.83508 8.00073H9.83352" fill="black"/>
</g>
<defs>
<clipPath id="clip0_1834_58329">
<rect width="16" height="16" fill="white"/>
</clipPath>
</defs>
</svg>
