<svg width="18" height="14" viewBox="0 0 18 14" fill="none" xmlns="http://www.w3.org/2000/svg">
<g clip-path="url(#clip0_1834_58325)">
<path d="M2.92451 10.6856C3.03481 10.5758 3.18455 10.5139 3.34079 10.5137H17.7051C17.7634 10.5136 17.8203 10.5307 17.8688 10.5628C17.9172 10.5948 17.955 10.6405 17.9773 10.6939C17.9995 10.7473 18.0053 10.8061 17.9939 10.8627C17.9825 10.9194 17.9544 10.9715 17.9131 11.0123L15.0757 13.8283C15.021 13.8825 14.9561 13.9255 14.8847 13.9548C14.8132 13.9841 14.7367 13.9992 14.6594 13.9992H0.295028C0.237193 13.9988 0.180745 13.9816 0.132729 13.9496C0.0847133 13.9176 0.0472576 13.8722 0.0250371 13.8192C0.0028167 13.7663 -0.00318404 13.7079 0.00778397 13.6516C0.018752 13.5952 0.0462029 13.5433 0.08671 13.5023L2.92451 10.6856Z" fill="black"/>
<path d="M2.92451 0.17053C3.03599 0.0626497 3.18509 0.00157206 3.34079 3.08052e-07H17.7051C17.7634 -8.36581e-05 17.8203 0.0169992 17.8688 0.0490827C17.9172 0.0811662 17.955 0.126805 17.9773 0.180212C17.9995 0.233619 18.0053 0.292389 17.9939 0.349069C17.9825 0.405749 17.9544 0.457786 17.9131 0.498581L15.0757 3.31461C15.021 3.36884 14.9561 3.41183 14.8847 3.44115C14.8132 3.47047 14.7367 3.48554 14.6594 3.4855H0.295028C0.237193 3.48514 0.180745 3.46789 0.132729 3.43589C0.0847133 3.40389 0.0472576 3.35857 0.0250371 3.30557C0.0028167 3.25258 -0.00318404 3.19426 0.00778397 3.1379C0.018752 3.08155 0.0462029 3.02964 0.08671 2.98867L2.92451 0.17053Z" fill="black"/>
<path d="M15.076 5.39354C15.0213 5.33932 14.9564 5.29632 14.8849 5.267C14.8135 5.23768 14.737 5.22261 14.6597 5.22266H0.29531C0.237114 5.22267 0.180228 5.2398 0.131837 5.27189C0.0834464 5.30397 0.0457226 5.34957 0.023431 5.40292C0.00113933 5.45628 -0.00472004 5.51499 0.006593 5.57164C0.017906 5.6283 0.0458839 5.68036 0.0869925 5.72124L2.92479 8.53727C2.97946 8.59151 3.04436 8.63452 3.11579 8.66384C3.18722 8.69316 3.26377 8.70822 3.34107 8.70815H17.7054C17.7637 8.70824 17.8206 8.69115 17.8691 8.65907C17.9175 8.62699 17.9553 8.58135 17.9776 8.52794C17.9998 8.47453 18.0056 8.41576 17.9942 8.35908C17.9828 8.3024 17.9547 8.25037 17.9134 8.20957L15.076 5.39354Z" fill="black"/>
</g>
<defs>
<clipPath id="clip0_1834_58325">
<rect width="18" height="14" fill="white"/>
</clipPath>
</defs>
</svg>
