<svg width="16" height="16" viewBox="0 0 16 16" fill="none" xmlns="http://www.w3.org/2000/svg">
<g clip-path="url(#clip0_1834_58321)">
<path d="M8.00002 16C9.58227 16 11.129 15.5308 12.4446 14.6518C13.7602 13.7727 14.7856 12.5233 15.3911 11.0615C15.9966 9.59966 16.155 7.99113 15.8463 6.43928C15.5376 4.88743 14.7757 3.46197 13.6569 2.34315C12.5381 1.22433 11.1126 0.462403 9.56075 0.153721C8.0089 -0.15496 6.40036 0.00346626 4.93856 0.608967C3.47675 1.21447 2.22732 2.23985 1.34827 3.55544C0.469215 4.87104 2.32976e-05 6.41775 2.32976e-05 8C-0.00251681 9.05129 0.202676 10.0927 0.603813 11.0645C1.00495 12.0362 1.59413 12.9191 2.3375 13.6625C3.08088 14.4059 3.9638 14.9951 4.93555 15.3962C5.9073 15.7974 6.94874 16.0025 8.00002 16Z" fill="black"/>
<path d="M10.2 9.2665C10.2 8.09987 9.49999 7.69984 8.10004 7.53314C7.10012 7.3999 6.90026 7.1331 6.90026 6.66645C6.90026 6.1998 7.23368 5.89986 7.90018 5.89986C8.50007 5.89986 8.8338 6.09972 9.00019 6.59983C9.01762 6.64805 9.0493 6.68982 9.09103 6.7196C9.13277 6.74937 9.18257 6.76575 9.23383 6.76654H9.7671C9.79795 6.76728 9.82861 6.76174 9.85726 6.75028C9.8859 6.73881 9.91191 6.72165 9.93373 6.69984C9.95554 6.67802 9.9727 6.65201 9.98417 6.62337C9.99563 6.59473 10.0012 6.56406 10.0004 6.53321V6.49975C9.93589 6.13853 9.75385 5.80874 9.48259 5.56163C9.21133 5.31452 8.86605 5.16393 8.50039 5.13326V4.3332C8.50039 4.19996 8.4003 4.09987 8.2336 4.06641H7.73348C7.59992 4.06641 7.50015 4.16649 7.46669 4.3332V5.09979C6.46676 5.23303 5.83341 5.89986 5.83341 6.73307C5.83341 7.83308 6.49992 8.26658 7.89987 8.43329C8.83349 8.59968 9.13343 8.79985 9.13343 9.33312C9.13343 9.86639 8.66678 10.2333 8.03342 10.2333C7.16674 10.2333 6.86522 9.86639 6.76671 9.36659C6.73324 9.23335 6.63347 9.16641 6.53338 9.16641H5.96728C5.93644 9.16568 5.90577 9.17121 5.87712 9.18268C5.84848 9.19414 5.82247 9.2113 5.80065 9.23312C5.77884 9.25493 5.76168 9.28095 5.75021 9.30959C5.73875 9.33823 5.73322 9.3689 5.73395 9.39974V9.43321C5.86719 10.2664 6.40078 10.8666 7.50205 11.0333V11.8331C7.50205 11.9666 7.60182 12.0664 7.76852 12.0999H8.26864C8.40188 12.0999 8.50197 11.9998 8.53512 11.8331V11.0333C9.53536 10.8666 10.2019 10.1663 10.2019 9.26524L10.2 9.2665Z" fill="white"/>
<path d="M6.30029 12.7673C3.70024 11.834 2.36691 8.93403 3.33241 6.36745C3.83222 4.9675 4.93222 3.90064 6.30029 3.39958C6.43353 3.33296 6.50015 3.23287 6.50015 3.06617V2.60078C6.50015 2.46754 6.43353 2.36745 6.30029 2.33398C6.26682 2.33398 6.2002 2.33398 6.16673 2.36745C2.99963 3.36737 1.2669 6.73402 2.26682 9.9008C2.55731 10.8155 3.06313 11.6471 3.74177 12.3258C4.4204 13.0044 5.25202 13.5102 6.16673 13.8007C6.30029 13.8673 6.43353 13.8007 6.467 13.6675C6.50015 13.634 6.50015 13.6009 6.50015 13.5342V13.0676C6.50015 12.9675 6.40038 12.8343 6.30029 12.7673ZM9.83364 2.36871C9.70008 2.3021 9.56685 2.36871 9.53369 2.50195C9.50023 2.53542 9.50023 2.56857 9.50023 2.63551V3.1009C9.50023 3.23413 9.60031 3.36737 9.70008 3.43399C12.3001 4.36729 13.6335 7.26729 12.668 9.83418C12.1678 11.2341 11.0678 12.3007 9.70008 12.8021C9.56685 12.8687 9.50023 12.9688 9.50023 13.1355V13.6021C9.50023 13.7354 9.56685 13.8354 9.70008 13.8686C9.73355 13.8686 9.80017 13.8686 9.83364 13.8354C13.0001 12.8343 14.7335 9.4673 13.7345 6.30083C13.4447 5.38199 12.9394 4.54573 12.2609 3.86174C11.5823 3.17776 10.7501 2.66586 9.83364 2.36871Z" fill="white"/>
</g>
<defs>
<clipPath id="clip0_1834_58321">
<rect width="16" height="16" fill="white"/>
</clipPath>
</defs>
</svg>
